{
	"asset":{
		"generator":"Khronos glTF Blender I/O v4.0.44",
		"version":"2.0"
	},
	"extensionsUsed":[
		"KHR_materials_specular",
		"KHR_materials_ior"
	],
	"scene":0,
	"scenes":[
		{
			"name":"Scene",
			"nodes":[
				0
			]
		}
	],
	"nodes":[
		{
			"mesh":0,
			"name":"Cube"
		}
	],
	"materials":[
		{
			"doubleSided":true,
			"extensions":{
				"KHR_materials_specular":{
					"specularFactor":0.20000000298023224
				},
				"KHR_materials_ior":{
					"ior":1.4500000476837158
				}
			},
			"name":"brown",
			"pbrMetallicRoughness":{
				"baseColorTexture":{
					"index":0
				},
				"metallicFactor":0.8516088724136353,
				"roughnessFactor":0.7863636016845703
			}
		}
	],
	"meshes":[
		{
			"name":"Cube",
			"primitives":[
				{
					"attributes":{
						"POSITION":0,
						"NORMAL":1,
						"TEXCOORD_0":2
					},
					"indices":3,
					"material":0
				}
			]
		}
	],
	"textures":[
		{
			"sampler":0,
			"source":0
		}
	],
	"images":[
		{
			"mimeType":"image/png",
			"name":"4K",
			"uri":"4K.png"
		}
	],
	"accessors":[
		{
			"bufferView":0,
			"componentType":5126,
			"count":166180,
			"max":[
				0.49164682626724243,
				2.852093458175659,
				0.3322463929653168
			],
			"min":[
				-0.4999319016933441,
				0.005864504724740982,
				-1.1410003900527954
			],
			"type":"VEC3"
		},
		{
			"bufferView":1,
			"componentType":5126,
			"count":166180,
			"type":"VEC3"
		},
		{
			"bufferView":2,
			"componentType":5126,
			"count":166180,
			"type":"VEC2"
		},
		{
			"bufferView":3,
			"componentType":5125,
			"count":166248,
			"type":"SCALAR"
		}
	],
	"bufferViews":[
		{
			"buffer":0,
			"byteLength":1994160,
			"byteOffset":0,
			"target":34962
		},
		{
			"buffer":0,
			"byteLength":1994160,
			"byteOffset":1994160,
			"target":34962
		},
		{
			"buffer":0,
			"byteLength":1329440,
			"byteOffset":3988320,
			"target":34962
		},
		{
			"buffer":0,
			"byteLength":664992,
			"byteOffset":5317760,
			"target":34963
		}
	],
	"samplers":[
		{
			"magFilter":9729,
			"minFilter":9987
		}
	],
	"buffers":[
		{
			"byteLength":5982752,
			"uri":"scene.bin"
		}
	]
}
