<?xml version="1.0" encoding="utf-8"?>
<!-- Generator: Adobe Illustrator 27.0.1, SVG Export Plug-In . SVG Version: 6.00 Build 0)  -->
<svg version="1.1" id="Слой_1" xmlns="http://www.w3.org/2000/svg" xmlns:xlink="http://www.w3.org/1999/xlink" x="0px" y="0px"
	 viewBox="0 0 38.66 41.77" style="enable-background:new 0 0 38.66 41.77;" xml:space="preserve">
<style type="text/css">
	.st0{fill:#161515;}
</style>
<path class="st0" d="M33.2,20.56c0.01-0.11,0.05-0.18,0.15-0.24c1.61-0.93,3.22-1.86,4.83-2.8c0.16-0.09,0.31-0.19,0.48-0.28
	c-0.43-1.5-0.83-2.99-1.28-4.47c-0.27,0.03-0.53,0.05-0.79,0.07C34.8,13.01,32,13.29,32,13.29l-0.23-0.13l-1.88-3.22
	c0,0-0.12-0.19-0.08-0.33c0.5-1.78,1-3.56,1.49-5.33c0.02-0.05,0.03-0.11,0.04-0.17c-1.17-0.84-2.33-1.68-3.5-2.52
	c-0.05,0.05-0.09,0.1-0.13,0.14c-1.27,1.41-2.55,2.81-3.82,4.22c-0.08,0.09-0.16,0.12-0.27,0.11c-1.38-0.16-2.76-0.31-4.14-0.46
	c-0.13-0.01-0.19-0.07-0.24-0.19c-0.24-0.54-0.49-1.07-0.73-1.61c-0.46-1-0.91-2-1.37-3C17.03,0.54,16.91,0.28,16.78,0
	c-1.41,0.43-2.82,0.85-4.23,1.28c0,0.05,0,0.1,0,0.15c0.06,2.05,0.12,4.09,0.18,6.14c0,0.13-0.03,0.21-0.13,0.29
	c-0.9,0.74-1.8,1.49-2.7,2.23c-0.2,0.16-0.4,0.33-0.6,0.5c-1.92-0.8-3.83-1.61-5.75-2.41C2.77,9.6,1.99,11,1.21,12.41
	c0.1,0.09,0.19,0.16,0.27,0.24c1.49,1.3,2.97,2.6,4.46,3.89c0.08,0.07,0.12,0.14,0.1,0.26c-0.2,1.47-0.39,2.94-0.58,4.41
	c-0.01,0.11-0.05,0.18-0.15,0.24c-1.61,0.93-3.22,1.86-4.83,2.8C0.32,24.33,0.16,24.43,0,24.53c0.43,1.5,0.83,2.99,1.28,4.47
	c0.27-0.03,0.53-0.05,0.79-0.07c1.79-0.16,3.58-0.32,5.36-0.49c0.11-0.01,0.18,0.02,0.25,0.11c0.84,1.15,1.69,2.29,2.54,3.43
	c0.08,0.11,0.09,0.2,0.06,0.33c-0.56,1.94-1.12,3.88-1.68,5.82c-0.02,0.08-0.04,0.15-0.07,0.25c1.31,0.5,2.61,0.99,3.92,1.49
	c0.48-0.98,1.38-2.78,2.3-4.62c0.05,0.16,0.09,0.31,0.13,0.47c0.04-0.02,0.09-0.03,0.15-0.02c1.38,0.16,2.76,0.31,4.14,0.46
	c0.13,0.01,0.19,0.07,0.24,0.19c0.24,0.54,0.49,1.07,0.73,1.61c0.46,1,0.91,2,1.37,3c0.12,0.26,0.24,0.53,0.37,0.81
	c1.41-0.43,2.82-0.85,4.23-1.28c0-0.05,0-0.1,0-0.15c-0.06-2.05-0.12-4.09-0.18-6.14c0-0.13,0.03-0.21,0.13-0.29
	c0.9-0.74,1.8-1.49,2.7-2.23c0.2-0.16,0.4-0.33,0.6-0.5c1.92,0.8,3.83,1.61,5.75,2.41c0.79-1.42,1.57-2.82,2.35-4.23
	c-0.1-0.09-0.19-0.16-0.27-0.24c-1.49-1.3-2.97-2.6-4.46-3.89c-0.08-0.07-0.12-0.14-0.1-0.26C32.82,23.5,33.01,22.03,33.2,20.56z
	 M27.15,23.03l-3.05,4.5l-3.4,1.74l-3.7-0.47L13.4,26.6l-1.64-2.72l-0.26-5.14l3.05-4.5l3.4-1.74l4.16,0.52l3.23,2.32l1.53,2.55
	L27.15,23.03z"/>
</svg>
